<?xml version="1.0" encoding="utf-8"?>
<!-- Svg Vector Icons : http://www.onlinewebfonts.com/icon -->
<!DOCTYPE svg PUBLIC "-//W3C//DTD SVG 1.1//EN" "http://www.w3.org/Graphics/SVG/1.1/DTD/svg11.dtd">
<svg version="1.1" xmlns="http://www.w3.org/2000/svg" xmlns:xlink="http://www.w3.org/1999/xlink" x="0px" y="0px" viewBox="0 0 256 256" enable-background="new 0 0 256 256" xml:space="preserve">
<metadata> Svg Vector Icons : http://www.onlinewebfonts.com/icon </metadata>
<g><g><g><path fill="#fff9f8" d="M188.9,159.6c-15-3.5-34.2-12.7-41.1-24.1c-3.9-6.4-4.3-13.5-1.1-19.6c0.2-0.3,0.5-0.8,0.7-1.2c-0.2-1.3,0.1-3.1,1.1-5.5c0.1-0.2,0.1-0.2,0.1-0.3H71.5c0,0.1,0,0.1,0.1,0.2l0,0c1.7,2.7,3.3,5.1,4,6.7c3.2,6.2,2.8,13.3-1.1,19.7c-7,11.4-26.2,20.6-41.1,24.1l-4.1,69.5c-0.4,7.6,4.6,13.9,11.1,13.9h141.6c6.6,0,11.6-6.2,11.1-13.9L188.9,159.6z M88,207.5H74.7c-2.5,0-4.4-2-4.4-4.5c0-2.5,2-4.5,4.4-4.5H88c2.4,0,4.4,2,4.4,4.5C92.4,205.5,90.4,207.5,88,207.5z M88,190.5H74.7c-2.5,0-4.4-2-4.4-4.5c0-2.5,2-4.4,4.4-4.4H88c2.4,0,4.4,2,4.4,4.4C92.4,188.6,90.4,190.5,88,190.5z M88,173.6H74.7c-2.5,0-4.4-2-4.4-4.4s2-4.4,4.4-4.4H88c2.4,0,4.4,2,4.4,4.4C92.4,171.7,90.4,173.6,88,173.6z M117.8,207.5h-13.3c-2.5,0-4.4-2-4.4-4.5c0-2.5,2-4.5,4.4-4.5h13.3c2.5,0,4.5,2,4.5,4.5C122.2,205.5,120.3,207.5,117.8,207.5z M117.8,190.5h-13.3c-2.5,0-4.4-2-4.4-4.5c0-2.5,2-4.4,4.4-4.4h13.3c2.5,0,4.5,2,4.5,4.4C122.2,188.6,120.3,190.5,117.8,190.5z M117.8,173.6h-13.3c-2.5,0-4.4-2-4.4-4.4s2-4.4,4.4-4.4h13.3c2.5,0,4.5,2,4.5,4.4C122.2,171.7,120.3,173.6,117.8,173.6z M147.6,207.5h-13.3c-2.4,0-4.5-2-4.5-4.5c0-2.5,2-4.5,4.5-4.5h13.3c2.5,0,4.5,2,4.5,4.5C152.1,205.5,150,207.5,147.6,207.5z M147.6,190.5h-13.3c-2.4,0-4.5-2-4.5-4.5c0-2.5,2-4.4,4.5-4.4h13.3c2.5,0,4.5,2,4.5,4.4C152,188.6,150,190.5,147.6,190.5z M147.6,173.6h-13.3c-2.4,0-4.5-2-4.5-4.4s2-4.4,4.5-4.4h13.3c2.5,0,4.5,2,4.5,4.4C152,171.7,150,173.6,147.6,173.6z M200.1,79.9c0.1,1.2,0.3,2.5,0.1,3.7c-1.1,7.2-4.9,13.8-7.2,20.8c-3,8.8-47.9,2.1-45.1-9.4c1.1-4.3,6.3-16.6,5.9-21c-0.4-3.9-6.1-5.6-10.8-4.9c-12.4,1.9-27.7,6.5-40.5,9.7v0c-0.4,0.1-0.7,0.1-1.1,0.3c-0.4,0.1-0.7,0.2-1.1,0.3v0c-12.9,3-28.6,5.9-40.5,9.8c-4.5,1.5-8.8,5.6-7.3,9.3c1.6,4.1,11.9,12.7,14.8,16c7.8,9-29.2,35.4-35.8,28.9c-5.2-5.1-11.6-9.3-15.8-15.2c-0.7-1-1-2.2-1.6-3.3C1.7,99.3,18.2,66.4,52.4,55.2c13.1-4.3,26.2-8.1,39.5-11.6l0-0.1c0.4-0.1,0.7-0.1,1.1-0.2c0.4-0.1,0.7-0.2,1.1-0.3l0,0.1c13.4-3,26.9-5.6,40.4-7.7C170,29.8,199.7,51.6,200.1,79.9z M239.1,109.4l-9.5-4.5C244.2,74,230.9,37,200,22.5l4.4-9.5C240.6,30.1,256.1,73.3,239.1,109.4z M222.8,101.7l-9.5-4.5c10.3-21.9,0.9-48.1-21-58.4l4.5-9.4C223.9,42.2,235.5,74.6,222.8,101.7z"/></g><g></g><g></g><g></g><g></g><g></g><g></g><g></g><g></g><g></g><g></g><g></g><g></g><g></g><g></g><g></g></g></g>
</svg>
