<svg class="border shadow-md" viewBox="0 0 1351.68 760.32" xmlns="http://www.w3.org/2000/svg" preserveAspectRatio="none" style="width: 1351.68px; height: 760.32px;"><rect class="bg" id="bg" x="0" y="0" width="1351.68" height="760.32" fill="#FFC2C4"/><g transform="translate(-475.20000000000005 285.12) scale(1)"><path d="M785,677.5Q709,880,510.5,819.5Q312,759,205,617Q98,475,200,325.5Q302,176,469,186.5Q636,197,748.5,336Q861,475,785,677.5Z" fill="#F1ADBE" stroke="none" stroke-width="10"/></g><g transform="translate(876.48 -475.20000000000005) scale(1)"><path d="M788.5,649.5Q677,824,471.5,831Q266,838,194,656.5Q122,475,190.5,288Q259,101,447,149.5Q635,198,767.5,336.5Q900,475,788.5,649.5Z" fill="#F1ADBE" stroke="none" stroke-width="10"/></g></svg>