<!-- Generated by IcoMoon.io -->
<svg version="1.1" xmlns="http://www.w3.org/2000/svg" width="1024" height="1024" viewBox="0 0 1024 1024">
<title></title>
<g id="icomoon-ignore">
</g>
<path fill="#fbeae7" d="M590.294 338.667c24.8-35.015 39.374-77.785 39.374-123.958 0-118.581-96.129-214.71-214.71-214.71s-214.71 96.129-214.71 214.71c0 76.014 39.501 142.803 99.097 180.957v-40.806c-40.349-33.322-66.065-83.734-66.065-140.151 0-100.338 81.34-181.677 181.677-181.677s181.677 81.34 181.677 181.677c0 44.042-15.672 84.423-41.741 115.873 12.435 0.83 24.339 3.628 35.399 8.085v0 0zM530.571 308.147c20.659-25.53 33.032-58.039 33.032-93.437 0-82.094-66.551-148.645-148.645-148.645s-148.645 66.551-148.645 148.645c0 35.399 12.374 67.908 33.032 93.437v-93.725c0-63.753 51.762-115.325 115.613-115.325 63.721 0 115.613 51.633 115.613 115.325v93.725zM613.111 990.968c136.847 0 247.783-118.428 247.783-247.742 0 0 0 76.412 0 0v-198.138c0-27.395-21.993-49.604-49.548-49.604-27.365 0-49.548 22.171-49.548 49.604v16.46h-33.032v-82.368c0-27.482-21.993-49.761-49.548-49.761-27.365 0-49.548 22.182-49.548 49.761v49.336h-33.032v-82.368c0-27.482-21.993-49.761-49.548-49.761-27.365 0-49.548 22.182-49.548 49.761v115.4h-33.032v-346.665c0-27.46-21.993-49.722-49.548-49.722-27.365 0-49.548 22.037-49.548 49.722v373.091c-67.994-72.684-157.51-152.638-194.196-115.754-35.911 36.105 56.629 135.597 185.851 353.028 58.223 97.966 131.895 165.704 256.045 165.72v0zM893.926 743.226c0 155.067-125.707 280.774-280.774 280.774-102.826 0-211.347-47.979-286.033-184.049-107.801-196.401-245.66-325.203-180.017-390.847 46.961-46.961 120.691-1.909 185.274 58.495v0-292.612c0-46.014 36.972-82.858 82.581-82.858 45.926 0 82.581 37.097 82.581 82.858v164.83c13.802-10.341 30.957-16.462 49.548-16.462 35.758 0 65.895 22.378 77.487 53.781 14.56-12.887 33.69-20.748 54.642-20.748 45.926 0 82.581 36.937 82.581 82.502v0.445c13.802-10.325 30.957-16.414 49.548-16.414 45.926 0 82.581 36.974 82.581 82.585v197.721z"></path>
</svg>
