<svg id="visual" viewBox="0 0 900 600" width="900" height="600" xmlns="http://www.w3.org/2000/svg" xmlns:xlink="http://www.w3.org/1999/xlink" version="1.1"><rect x="0" y="0" width="900" height="600" fill="#ffc2c4"></rect><defs><linearGradient id="grad1_0" x1="33.3%" y1="0%" x2="100%" y2="100%"><stop offset="20%" stop-color="#ffc2c4" stop-opacity="1"></stop><stop offset="80%" stop-color="#ffc2c4" stop-opacity="1"></stop></linearGradient></defs><defs><linearGradient id="grad2_0" x1="0%" y1="0%" x2="66.7%" y2="100%"><stop offset="20%" stop-color="#ffc2c4" stop-opacity="1"></stop><stop offset="80%" stop-color="#ffc2c4" stop-opacity="1"></stop></linearGradient></defs><g transform="translate(900, 0)"><path d="M0 486.7C-50.1 450.1 -100.3 413.5 -164.2 396.3C-228.1 379.2 -305.7 381.7 -344.2 344.2C-382.6 306.7 -381.9 229.3 -399.1 165.3C-416.3 101.3 -451.5 50.7 -486.7 0L0 0Z" fill="#f1adbe"></path></g><g transform="translate(0, 600)"><path d="M0 -486.7C57.2 -468.2 114.3 -449.6 178.3 -430.5C242.3 -411.4 313.2 -391.8 344.2 -344.2C375.2 -296.5 366.3 -220.9 383.4 -158.8C400.5 -96.8 443.6 -48.4 486.7 0L0 0Z" fill="#f1adbe"></path></g></svg>