<svg id="visual" viewBox="0 0 834 300" width="834" height="300" xmlns="http://www.w3.org/2000/svg" xmlns:xlink="http://www.w3.org/1999/xlink" version="1.1"><rect x="0" y="0" width="834" height="300" fill="#ffc2c4"></rect><defs><linearGradient id="grad1_0" x1="64%" y1="0%" x2="100%" y2="100%"><stop offset="-5.599999999999998%" stop-color="#ffc2c4" stop-opacity="1"></stop><stop offset="105.6%" stop-color="#ffc2c4" stop-opacity="1"></stop></linearGradient></defs><defs><linearGradient id="grad2_0" x1="0%" y1="0%" x2="36%" y2="100%"><stop offset="-5.599999999999998%" stop-color="#ffc2c4" stop-opacity="1"></stop><stop offset="105.6%" stop-color="#ffc2c4" stop-opacity="1"></stop></linearGradient></defs><g transform="translate(834, 0)"><path d="M0 300C-9.4 277.4 -18.7 254.8 -34.5 261.7C-50.2 268.7 -72.2 305.2 -77.6 289.8C-83.1 274.3 -71.8 206.9 -79.6 192.2C-87.4 177.5 -114.1 215.5 -132 228.6C-149.9 241.7 -158.9 229.9 -168.6 219.8C-178.3 209.6 -188.7 201.2 -181 181C-173.4 160.8 -147.7 128.9 -159.5 122.4C-171.2 115.8 -220.2 134.6 -219.1 126.5C-218 118.4 -166.6 83.5 -177.4 73.5C-188.2 63.5 -261.1 78.4 -279.2 74.8C-297.2 71.2 -260.5 49.1 -254.8 33.5C-249.1 18 -274.6 9 -300 0L0 0Z" fill="#f0adbe"></path></g><g transform="translate(0, 300)"><path d="M0 -300C5.5 -244.8 11 -189.6 26 -197.3C41 -205 65.4 -275.6 75.3 -281.1C85.2 -286.6 80.5 -227 84.6 -204.2C88.7 -181.3 101.7 -195.1 119.5 -207C137.3 -218.8 160 -228.7 172.9 -225.3C185.8 -221.9 188.8 -205.2 189.5 -189.5C190.2 -173.8 188.6 -159.2 196.8 -151C204.9 -142.8 222.8 -141.1 226.9 -131C230.9 -120.9 221.1 -102.5 214.3 -88.8C207.6 -75.1 203.9 -66.1 222.2 -59.5C240.5 -52.9 280.8 -48.7 297.4 -39.2C314.1 -29.6 307 -14.8 300 0L0 0Z" fill="#f0adbe"></path></g></svg>