<svg id="visual" viewBox="0 0 834 300" width="834" height="300" xmlns="http://www.w3.org/2000/svg" xmlns:xlink="http://www.w3.org/1999/xlink" version="1.1"><rect x="0" y="0" width="834" height="300" fill="#f1adbe"></rect><g transform="translate(404.4582771507731 127.36996349380856)"><path d="M90.1 -99.9C112.9 -88.2 124.9 -56.2 127.7 -24.8C130.5 6.6 124.1 37.3 108.7 61.5C93.2 85.7 68.7 103.5 38.4 121.5C8 139.5 -28 157.9 -53.3 148C-78.5 138.1 -93 100.1 -99.3 67.7C-105.7 35.3 -104.1 8.6 -96.2 -13.7C-88.4 -36 -74.3 -53.9 -57.2 -66.6C-40.2 -79.2 -20.1 -86.6 6.8 -94.7C33.6 -102.8 67.3 -111.5 90.1 -99.9" fill="#ffc2c4"></path></g></svg>