<svg id="visual" viewBox="0 0 834 300" width="834" height="300" xmlns="http://www.w3.org/2000/svg" xmlns:xlink="http://www.w3.org/1999/xlink" version="1.1"><path d="M0 79L8.2 82C16.3 85 32.7 91 49 97.5C65.3 104 81.7 111 98 106C114.3 101 130.7 84 147 70.5C163.3 57 179.7 47 196 52C212.3 57 228.7 77 245 86.5C261.3 96 277.7 95 294 95C310.3 95 326.7 96 343 99C359.3 102 375.7 107 392.2 108.5C408.7 110 425.3 108 441.8 107C458.3 106 474.7 106 491 102.5C507.3 99 523.7 92 540 82C556.3 72 572.7 59 589 60.5C605.3 62 621.7 78 638 86.5C654.3 95 670.7 96 687 103C703.3 110 719.7 123 736 116C752.3 109 768.7 82 785 73C801.3 64 817.7 73 825.8 77.5L834 82L834 0L825.8 0C817.7 0 801.3 0 785 0C768.7 0 752.3 0 736 0C719.7 0 703.3 0 687 0C670.7 0 654.3 0 638 0C621.7 0 605.3 0 589 0C572.7 0 556.3 0 540 0C523.7 0 507.3 0 491 0C474.7 0 458.3 0 441.8 0C425.3 0 408.7 0 392.2 0C375.7 0 359.3 0 343 0C326.7 0 310.3 0 294 0C277.7 0 261.3 0 245 0C228.7 0 212.3 0 196 0C179.7 0 163.3 0 147 0C130.7 0 114.3 0 98 0C81.7 0 65.3 0 49 0C32.7 0 16.3 0 8.2 0L0 0Z" fill="#cfc3c2"></path><path d="M0 106L8.2 112.5C16.3 119 32.7 132 49 140C65.3 148 81.7 151 98 150C114.3 149 130.7 144 147 135.5C163.3 127 179.7 115 196 118.5C212.3 122 228.7 141 245 148.5C261.3 156 277.7 152 294 146C310.3 140 326.7 132 343 135C359.3 138 375.7 152 392.2 154.5C408.7 157 425.3 148 441.8 144C458.3 140 474.7 141 491 138.5C507.3 136 523.7 130 540 124.5C556.3 119 572.7 114 589 119C605.3 124 621.7 139 638 145.5C654.3 152 670.7 150 687 152C703.3 154 719.7 160 736 153.5C752.3 147 768.7 128 785 125.5C801.3 123 817.7 137 825.8 144L834 151L834 80L825.8 75.5C817.7 71 801.3 62 785 71C768.7 80 752.3 107 736 114C719.7 121 703.3 108 687 101C670.7 94 654.3 93 638 84.5C621.7 76 605.3 60 589 58.5C572.7 57 556.3 70 540 80C523.7 90 507.3 97 491 100.5C474.7 104 458.3 104 441.8 105C425.3 106 408.7 108 392.2 106.5C375.7 105 359.3 100 343 97C326.7 94 310.3 93 294 93C277.7 93 261.3 94 245 84.5C228.7 75 212.3 55 196 50C179.7 45 163.3 55 147 68.5C130.7 82 114.3 99 98 104C81.7 109 65.3 102 49 95.5C32.7 89 16.3 83 8.2 80L0 77Z" fill="#c4b6b4"></path><path d="M0 142L8.2 148C16.3 154 32.7 166 49 172C65.3 178 81.7 178 98 175.5C114.3 173 130.7 168 147 162C163.3 156 179.7 149 196 157C212.3 165 228.7 188 245 195C261.3 202 277.7 193 294 186.5C310.3 180 326.7 176 343 179.5C359.3 183 375.7 194 392.2 196.5C408.7 199 425.3 193 441.8 189C458.3 185 474.7 183 491 179C507.3 175 523.7 169 540 160C556.3 151 572.7 139 589 144C605.3 149 621.7 171 638 180.5C654.3 190 670.7 187 687 188C703.3 189 719.7 194 736 185C752.3 176 768.7 153 785 148C801.3 143 817.7 156 825.8 162.5L834 169L834 149L825.8 142C817.7 135 801.3 121 785 123.5C768.7 126 752.3 145 736 151.5C719.7 158 703.3 152 687 150C670.7 148 654.3 150 638 143.5C621.7 137 605.3 122 589 117C572.7 112 556.3 117 540 122.5C523.7 128 507.3 134 491 136.5C474.7 139 458.3 138 441.8 142C425.3 146 408.7 155 392.2 152.5C375.7 150 359.3 136 343 133C326.7 130 310.3 138 294 144C277.7 150 261.3 154 245 146.5C228.7 139 212.3 120 196 116.5C179.7 113 163.3 125 147 133.5C130.7 142 114.3 147 98 148C81.7 149 65.3 146 49 138C32.7 130 16.3 117 8.2 110.5L0 104Z" fill="#baa9a7"></path><path d="M0 247L8.2 246.5C16.3 246 32.7 245 49 248C65.3 251 81.7 258 98 261C114.3 264 130.7 263 147 259C163.3 255 179.7 248 196 247.5C212.3 247 228.7 253 245 253C261.3 253 277.7 247 294 249.5C310.3 252 326.7 263 343 264C359.3 265 375.7 256 392.2 257C408.7 258 425.3 269 441.8 268.5C458.3 268 474.7 256 491 249.5C507.3 243 523.7 242 540 246C556.3 250 572.7 259 589 265.5C605.3 272 621.7 276 638 276.5C654.3 277 670.7 274 687 270C703.3 266 719.7 261 736 260.5C752.3 260 768.7 264 785 262.5C801.3 261 817.7 254 825.8 250.5L834 247L834 167L825.8 160.5C817.7 154 801.3 141 785 146C768.7 151 752.3 174 736 183C719.7 192 703.3 187 687 186C670.7 185 654.3 188 638 178.5C621.7 169 605.3 147 589 142C572.7 137 556.3 149 540 158C523.7 167 507.3 173 491 177C474.7 181 458.3 183 441.8 187C425.3 191 408.7 197 392.2 194.5C375.7 192 359.3 181 343 177.5C326.7 174 310.3 178 294 184.5C277.7 191 261.3 200 245 193C228.7 186 212.3 163 196 155C179.7 147 163.3 154 147 160C130.7 166 114.3 171 98 173.5C81.7 176 65.3 176 49 170C32.7 164 16.3 152 8.2 146L0 140Z" fill="#a19290"></path><path d="M0 301L8.2 301C16.3 301 32.7 301 49 301C65.3 301 81.7 301 98 301C114.3 301 130.7 301 147 301C163.3 301 179.7 301 196 301C212.3 301 228.7 301 245 301C261.3 301 277.7 301 294 301C310.3 301 326.7 301 343 301C359.3 301 375.7 301 392.2 301C408.7 301 425.3 301 441.8 301C458.3 301 474.7 301 491 301C507.3 301 523.7 301 540 301C556.3 301 572.7 301 589 301C605.3 301 621.7 301 638 301C654.3 301 670.7 301 687 301C703.3 301 719.7 301 736 301C752.3 301 768.7 301 785 301C801.3 301 817.7 301 825.8 301L834 301L834 245L825.8 248.5C817.7 252 801.3 259 785 260.5C768.7 262 752.3 258 736 258.5C719.7 259 703.3 264 687 268C670.7 272 654.3 275 638 274.5C621.7 274 605.3 270 589 263.5C572.7 257 556.3 248 540 244C523.7 240 507.3 241 491 247.5C474.7 254 458.3 266 441.8 266.5C425.3 267 408.7 256 392.2 255C375.7 254 359.3 263 343 262C326.7 261 310.3 250 294 247.5C277.7 245 261.3 251 245 251C228.7 251 212.3 245 196 245.5C179.7 246 163.3 253 147 257C130.7 261 114.3 262 98 259C81.7 256 65.3 249 49 246C32.7 243 16.3 244 8.2 244.5L0 245Z" fill="#897b79"></path></svg>