<svg id="visual" viewBox="0 0 834 300" width="834" height="300" xmlns="http://www.w3.org/2000/svg" xmlns:xlink="http://www.w3.org/1999/xlink" version="1.1"><path d="M641 300L641 300L641 270L758 270L758 240L641 240L641 210L708 210L708 180L725 180L725 150L750 150L750 120L716 120L716 90L758 90L758 60L683 60L683 30L625 30L625 0L834 0L834 30L834 30L834 60L834 60L834 90L834 90L834 120L834 120L834 150L834 150L834 180L834 180L834 210L834 210L834 240L834 240L834 270L834 270L834 300L834 300Z" fill="#f2aeb0"></path><path d="M474 300L499 300L499 270L599 270L599 240L324 240L324 210L574 210L574 180L491 180L491 150L625 150L625 120L583 120L583 90L658 90L658 60L349 60L349 30L516 30L516 0L626 0L626 30L684 30L684 60L759 60L759 90L717 90L717 120L751 120L751 150L726 150L726 180L709 180L709 210L642 210L642 240L759 240L759 270L642 270L642 300L642 300Z" fill="#f8cbc7"></path><path d="M424 300L449 300L449 270L499 270L499 240L224 240L224 210L483 210L483 180L408 180L408 150L499 150L499 120L474 120L474 90L516 90L516 60L274 60L274 30L374 30L374 0L517 0L517 30L350 30L350 60L659 60L659 90L584 90L584 120L626 120L626 150L492 150L492 180L575 180L575 210L325 210L325 240L600 240L600 270L500 270L500 300L475 300Z" fill="#fce7e3"></path><path d="M291 300L399 300L399 270L408 270L408 240L182 240L182 210L441 210L441 180L291 180L291 150L441 150L441 120L416 120L416 90L408 90L408 60L141 60L141 30L299 30L299 0L375 0L375 30L275 30L275 60L517 60L517 90L475 90L475 120L500 120L500 150L409 150L409 180L484 180L484 210L225 210L225 240L500 240L500 270L450 270L450 300L425 300Z" fill="#fce7e3"></path><path d="M249 300L274 300L274 270L333 270L333 240L91 240L91 210L383 210L383 180L224 180L224 150L358 150L358 120L291 120L291 90L333 90L333 60L99 60L99 30L249 30L249 0L300 0L300 30L142 30L142 60L409 60L409 90L417 90L417 120L442 120L442 150L292 150L292 180L442 180L442 210L183 210L183 240L409 240L409 270L400 270L400 300L292 300Z" fill="#f8cbc7"></path><path d="M0 300L0 300L0 270L0 270L0 240L0 240L0 210L0 210L0 180L0 180L0 150L0 150L0 120L0 120L0 90L0 90L0 60L0 60L0 30L0 30L0 0L250 0L250 30L100 30L100 60L334 60L334 90L292 90L292 120L359 120L359 150L225 150L225 180L384 180L384 210L92 210L92 240L334 240L334 270L275 270L275 300L250 300Z" fill="#f2aeb0"></path></svg>